Coordinates
version=1
nRows=17
nColumns=38
inDegrees=no

Units are S.I. units (second, meters, Newtons, ...)
If the header above contains a line with 'inDegrees', this indicates whether rotational values are in degrees (yes) or radians (no).

endheader
time	pelvis_tilt	pelvis_list	pelvis_rotation	pelvis_tx	pelvis_ty	pelvis_tz	hip_flexion_r	hip_adduction_r	hip_rotation_r	knee_angle_r	ankle_angle_r	subtalar_angle_r	mtp_angle_r	hip_flexion_l	hip_adduction_l	hip_rotation_l	knee_angle_l	ankle_angle_l	subtalar_angle_l	mtp_angle_l	lumbar_extension	lumbar_bending	lumbar_rotation	arm_flex_r	arm_add_r	arm_rot_r	elbow_flex_r	pro_sup_r	wrist_flex_r	wrist_dev_r	arm_flex_l	arm_add_l	arm_rot_l	elbow_flex_l	pro_sup_l	wrist_flex_l	wrist_dev_l
0	0.734558	1.37887	0.760903	0.794462	-0.535698	0.96256	0.202692	0.139486	-0.198973	0.209073	0.0979376	0	0	0.146809	-0.150411	-0.245276	0.109772	0.118804	0	0	0.0318788	0.221092	0.0104182	-0.104433	-0.326251	0.372405	0.660679	1.22355	0	0	-0.171049	-0.235096	0.685185	0.617401	0.572548	0	0
0.01	0.655672	1.33209	0.82538	0.794045	-0.538417	0.962301	0.289299	0.138778	-0.307981	0.285252	0.108317	0	0	0.192657	-0.175952	-0.270794	0.0943268	0.0920479	0	0	0.0761582	0.251935	0.0230244	-0.118273	-0.323841	0.314726	0.657256	1.26045	0	0	-0.165522	-0.102179	0.231735	0.444277	1.11282	0	0
0.02	0.689155	1.33065	0.786828	0.794767	-0.536287	0.962215	0.280625	0.149221	-0.301421	0.281868	0.10691	0	0	0.185887	-0.183306	-0.234213	0.099328	0.0905641	0	0	0.0771623	0.258195	0.03111	-0.138821	-0.323619	0.290305	0.67565	1.25275	0	0	-0.174962	-0.104497	0.226808	0.458646	1.11273	0	0
0.03	0.683646	1.32846	0.793734	0.794659	-0.535328	0.962053	0.282785	0.15023	-0.29987	0.282024	0.105666	0	0	0.1877	-0.183332	-0.232435	0.0983931	0.0885722	0	0	0.0846363	0.256812	0.0339261	-0.156441	-0.320584	0.266728	0.689633	1.24504	0	0	-0.179725	-0.107478	0.223997	0.469806	1.11317	0	0
0.04	0.680321	1.32647	0.798135	0.794538	-0.534306	0.9619	0.28421	0.151464	-0.298262	0.282114	0.104708	0	0	0.188343	-0.183399	-0.230966	0.096872	0.0879444	0	0	0.0911556	0.255528	0.0383556	-0.174869	-0.316884	0.241747	0.70428	1.23499	0	0	-0.183777	-0.111152	0.225447	0.481138	1.11587	0	0
0.05	0.681094	1.32497	0.798603	0.794362	-0.533279	0.96179	0.284397	0.152809	-0.29762	0.282053	0.103831	0	0	0.187474	-0.183603	-0.229113	0.0945267	0.0871137	0	0	0.096258	0.254499	0.0426791	-0.191794	-0.313506	0.221403	0.718306	1.22373	0	0	-0.186845	-0.114672	0.226579	0.492197	1.1187	0	0
0.06	0.68858	1.32412	0.792201	0.794056	-0.532286	0.961697	0.282945	0.154657	-0.29764	0.282121	0.103058	0	0	0.184548	-0.184399	-0.227192	0.0914067	0.0860029	0	0	0.101865	0.254571	0.038087	-0.198974	-0.313622	0.221881	0.726854	1.20636	0	0	-0.19414	-0.116198	0.2171	0.505304	1.11764	0	0
0.07	0.692123	1.3235	0.789614	0.793872	-0.531299	0.961574	0.282249	0.155816	-0.297441	0.282678	0.102705	0	0	0.181797	-0.184343	-0.224981	0.0875048	0.0841098	0	0	0.106529	0.253681	0.0381553	-0.20904	-0.311355	0.21385	0.736019	1.19286	0	0	-0.197652	-0.119	0.215307	0.515971	1.11809	0	0
0.08	0.695007	1.323	0.787588	0.793683	-0.530338	0.961427	0.281821	0.15681	-0.297017	0.283531	0.102144	0	0	0.178614	-0.184001	-0.222337	0.0827153	0.0822342	0	0	0.110962	0.252465	0.0385193	-0.217267	-0.308979	0.208678	0.742595	1.1773	0	0	-0.200315	-0.122586	0.219013	0.525477	1.11979	0	0
0.09	0.69596	1.32286	0.787823	0.793525	-0.529412	0.961263	0.281651	0.157237	-0.296379	0.284498	0.101475	0	0	0.175342	-0.183075	-0.219173	0.077527	0.0803207	0	0	0.115161	0.250473	0.0392136	-0.224593	-0.305742	0.203036	0.746904	1.16036	0	0	-0.201974	-0.127529	0.229636	0.534077	1.12266	0	0
0.1	0.701421	1.32276	0.783355	0.793274	-0.52853	0.96116	0.280216	0.158921	-0.293339	0.284044	0.099168	0	0	0.171555	-0.18323	-0.218266	0.0733397	0.0797781	0	0	0.118375	0.248701	0.039034	-0.228899	-0.30286	0.200033	0.747323	1.15547	0	0	-0.20279	-0.130791	0.234801	0.540794	1.12462	0	0
0.11	0.738023	1.31653	0.746844	0.792802	-0.52789	0.961903	0.276748	0.174986	-0.279424	0.279243	0.0876451	0	0	0.167007	-0.194394	-0.218286	0.0702973	0.0794859	0	0	0.11878	0.259791	0.0403932	-0.231406	-0.303157	0.197506	0.746063	1.15238	0	0	-0.199385	-0.129231	0.237428	0.541381	1.12321	0	0
0.12	0.739495	1.3181	0.746345	0.792431	-0.527057	0.961717	0.277221	0.1736	-0.279091	0.284105	0.0890587	0	0	0.162527	-0.192383	-0.21796	0.0657997	0.0790505	0	0	0.120908	0.256462	0.0404355	-0.232926	-0.300419	0.19834	0.743934	1.14646	0	0	-0.198927	-0.13331	0.24648	0.54862	1.11526	0	0
0.13	0.688933	1.3173	0.803214	0.791067	-0.527366	0.961288	0.293989	0.160782	-0.2838	0.295147	0.0915881	0	0	0.172428	-0.181648	-0.255698	0.0580068	0.0755647	0	0	0.134388	0.244203	0.0311198	-0.22698	-0.29698	0.207621	0.732084	1.14153	0	0	-0.179279	-0.144794	0.306569	0.519667	1.10896	0	0
0.14	0.736961	1.3213	0.751933	0.791527	-0.525615	0.961212	0.280494	0.169205	-0.279379	0.295843	0.0930296	0	0	0.155801	-0.187363	-0.216094	0.058277	0.0783703	0	0	0.125911	0.248703	0.0379237	-0.231021	-0.29556	0.205591	0.734904	1.14065	0	0	-0.196884	-0.139512	0.259125	0.559031	1.12693	0	0
0.15	0.733169	1.32289	0.757524	0.791005	-0.525051	0.960902	0.28325	0.166256	-0.279779	0.302706	0.0954536	0	0	0.153504	-0.184406	-0.214292	0.0551794	0.0783557	0	0	0.128587	0.244459	0.0364046	-0.22879	-0.293312	0.2097	0.729418	1.13977	0	0	-0.194442	-0.142528	0.266411	0.564139	1.11913	0	0
0.16	0.731472	1.32529	0.760683	0.790428	-0.524516	0.960676	0.284985	0.163058	-0.279593	0.309616	0.0981105	0	0	0.150175	-0.181224	-0.21264	0.0521146	0.0783054	0	0	0.129774	0.240218	0.0352765	-0.225779	-0.29146	0.214058	0.723889	1.13776	0	0	-0.191455	-0.145555	0.27589	0.568421	1.11026	0	0
